<svg width="26" height="25" viewBox="0 0 26 25" fill="none" xmlns="http://www.w3.org/2000/svg">
<path fill-rule="evenodd" clip-rule="evenodd" d="M25.0827 7.69939C25.255 8.42111 25.3419 9.159 25.3419 9.89922H14.9746V0C17.3238 -8.87585e-06 19.6033 0.761804 21.4398 2.16063C23.2762 3.55946 24.5607 5.51236 25.0827 7.69939ZM22.7017 7.69939C22.3192 6.4741 21.6231 5.35908 20.6763 4.45499C19.7294 3.55091 18.5617 2.88624 17.2785 2.521V7.69939H22.7017Z" fill="#F8F8F8"/>
<path fill-rule="evenodd" clip-rule="evenodd" d="M0 14.2989C-6.16177e-06 12.812 0.350786 11.3442 1.02633 10.0045C1.70187 8.66476 2.6848 7.48757 3.90213 6.56031C5.11947 5.63306 6.53992 4.97956 8.05802 4.64836C9.57612 4.31716 11.1529 4.31675 12.6711 4.64718V12.0991H20.4754C20.7997 13.4576 20.8199 14.8662 20.5348 16.2327C20.2497 17.5992 19.6657 18.8929 18.821 20.0291C17.9763 21.1652 16.8899 22.1184 15.6329 22.8261C14.3759 23.5338 12.9766 23.9801 11.5265 24.1359C10.0764 24.2917 8.60818 24.1534 7.21789 23.7301C5.82761 23.3069 4.54657 22.6081 3.45856 21.6796C2.37055 20.751 1.50008 19.6136 0.904094 18.3418C0.308107 17.0699 2.53362e-05 15.6923 0 14.2989ZM18.2038 14.2989H10.3673V6.81511C8.8171 6.81489 7.30165 7.25362 6.0126 8.07582C4.72355 8.89802 3.7188 10.0668 3.12541 11.4342C2.53201 12.8017 2.37664 14.3065 2.67893 15.7583C2.98121 17.21 3.72759 18.5436 4.82366 19.5904C5.91973 20.6371 7.31627 21.35 8.83666 21.6388C10.3571 21.9277 11.933 21.7796 13.3652 21.2132C14.7974 20.6468 16.0216 19.6875 16.8828 18.4568C17.7441 17.2261 18.2038 15.7791 18.2038 14.2989Z" fill="#F8F8F8"/>
</svg>
