<svg width="23" height="23" viewBox="0 0 23 23" fill="none" xmlns="http://www.w3.org/2000/svg">
<path fill-rule="evenodd" clip-rule="evenodd" d="M22.7647 7.31818C22.921 8.00417 22.9999 8.70552 22.9999 9.40909H13.5908V0C15.7229 -8.43639e-06 17.7917 0.724086 19.4584 2.05366C21.1252 3.38322 22.2909 5.23943 22.7647 7.31818ZM20.6037 7.31818C20.2566 6.15356 19.6248 5.09374 18.7655 4.23442C17.9062 3.3751 16.8464 2.74334 15.6817 2.39618V7.31818H20.6037Z" fill="#F8F8F8"/>
<path fill-rule="evenodd" clip-rule="evenodd" d="M0 13.5908C-5.59227e-06 12.1775 0.318365 10.7823 0.931468 9.50896C1.54457 8.23557 2.43666 7.11666 3.54148 6.23532C4.6463 5.35397 5.93547 4.73284 7.31326 4.41803C8.69104 4.10322 10.122 4.10284 11.5 4.41691V11.4999H18.583C18.8772 12.7911 18.8956 14.13 18.6369 15.4288C18.3781 16.7277 17.8481 17.9573 17.0815 19.0372C16.3148 20.1171 15.3289 21.0231 14.188 21.6957C13.0472 22.3684 11.7772 22.7926 10.4611 22.9407C9.14507 23.0888 7.81257 22.9574 6.55078 22.555C5.28899 22.1527 4.12635 21.4886 3.1389 20.606C2.15145 19.7234 1.36144 18.6424 0.820533 17.4335C0.27963 16.2246 2.29945e-05 14.9151 0 13.5908ZM16.5213 13.5908H9.40909V6.4775C8.00218 6.47729 6.62679 6.8943 5.45689 7.67579C4.28698 8.45728 3.37509 9.56815 2.83654 10.8679C2.29799 12.1677 2.15698 13.598 2.43133 14.9779C2.70567 16.3578 3.38307 17.6253 4.37783 18.6202C5.3726 19.6152 6.64006 20.2927 8.01993 20.5673C9.3998 20.8418 10.8301 20.701 12.1299 20.1627C13.4298 19.6243 14.5408 18.7126 15.3224 17.5428C16.1041 16.373 16.5213 14.9977 16.5213 13.5908Z" fill="#F8F8F8"/>
</svg>
