<svg width="23" height="23" viewBox="0 0 23 23" fill="none" xmlns="http://www.w3.org/2000/svg">
<path fill-rule="evenodd" clip-rule="evenodd" d="M22.7647 7.31818C22.921 8.00417 22.9999 8.70552 22.9999 9.40909H13.5908V0C15.7229 -8.43639e-06 17.7917 0.724086 19.4584 2.05366C21.1252 3.38322 22.2909 5.23943 22.7647 7.31818ZM20.6037 7.31818C20.2566 6.15356 19.6248 5.09374 18.7655 4.23442C17.9062 3.3751 16.8464 2.74334 15.6817 2.39618V7.31818H20.6037Z" fill="#F8F8F8"/>
<path fill-rule="evenodd" clip-rule="evenodd" d="M0 13.591C-5.59227e-06 12.1777 0.318365 10.7826 0.931468 9.5092C1.54457 8.23582 2.43666 7.11691 3.54148 6.23556C4.6463 5.35422 5.93547 4.73308 7.31326 4.41827C8.69104 4.10347 10.122 4.10308 11.5 4.41715V11.5001H18.583C18.8772 12.7914 18.8956 14.1302 18.6369 15.4291C18.3781 16.7279 17.8481 17.9575 17.0815 19.0375C16.3148 20.1174 15.3289 21.0233 14.188 21.696C13.0472 22.3686 11.7772 22.7929 10.4611 22.9409C9.14507 23.089 7.81257 22.9576 6.55078 22.5553C5.28899 22.153 4.12635 21.4888 3.1389 20.6062C2.15145 19.7237 1.36144 18.6426 0.820533 17.4337C0.27963 16.2248 2.29945e-05 14.9154 0 13.591ZM16.5213 13.591H9.40909V6.47774C8.00218 6.47753 6.62679 6.89454 5.45689 7.67604C4.28698 8.45753 3.37509 9.5684 2.83654 10.8682C2.29799 12.1679 2.15698 13.5982 2.43133 14.9781C2.70567 16.358 3.38307 17.6256 4.37783 18.6205C5.3726 19.6154 6.64006 20.293 8.01993 20.5675C9.3998 20.8421 10.8301 20.7013 12.1299 20.1629C13.4298 19.6246 14.5408 18.7128 15.3224 17.543C16.1041 16.3733 16.5213 14.9979 16.5213 13.591Z" fill="#F8F8F8"/>
</svg>
