<svg width="32" height="32" viewBox="0 0 32 32" fill="none" xmlns="http://www.w3.org/2000/svg">
<path d="M0 16C0 7.16344 7.16344 0 16 0C24.8366 0 32 7.16344 32 16C32 24.8366 24.8366 32 16 32C7.16344 32 0 24.8366 0 16Z" fill="#186ADE"/>
<path fill-rule="evenodd" clip-rule="evenodd" d="M15.7804 13.3631C15.7804 12.7464 15.6188 12.2177 15.2967 11.7752C14.7599 11.0546 13.8498 10.6853 12.5633 10.6665H7.4668V21.0708H12.2191C12.755 21.0708 13.2507 21.0253 13.7093 20.9313C14.1679 20.8362 14.5642 20.663 14.9004 20.4086C15.1994 20.1868 15.4483 19.9136 15.6469 19.5899C15.961 19.1008 16.1176 18.5475 16.1176 17.9307C16.1176 17.3328 15.9801 16.824 15.7071 16.4062C15.4312 15.9875 15.0258 15.6816 14.488 15.4875C14.8422 15.3093 15.1101 15.1114 15.2927 14.8956C15.6188 14.5095 15.7804 13.9977 15.7804 13.3631ZM22.8919 12.4464H18.3723V11.1516H22.8919V12.4464ZM18.8991 16.4626C18.9734 15.9617 19.155 15.5648 19.443 15.2717C19.731 14.9787 20.1384 14.8322 20.6602 14.8322C21.1418 14.8322 21.5442 14.9698 21.8714 15.246C22.1945 15.5242 22.3771 15.9281 22.4142 16.4626H18.8991ZM22.4935 13.5334C23.0384 13.773 23.4869 14.1531 23.8401 14.6718C24.1622 15.1292 24.3689 15.6598 24.4633 16.2627C24.5185 16.6151 24.5405 17.1259 24.5315 17.7902H18.849C18.8831 18.5613 19.152 19.1028 19.6658 19.4127C19.9768 19.6057 20.3511 19.7027 20.7906 19.7027C21.2532 19.7027 21.6315 19.5849 21.9215 19.3503C22.0811 19.2226 22.2216 19.0464 22.342 18.8207H24.4241C24.3689 19.2761 24.1161 19.7403 23.6685 20.2116C22.9701 20.959 21.9918 21.3332 20.7344 21.3332C19.6959 21.3332 18.7797 21.0184 17.988 20.3868C17.1923 19.7562 16.7969 18.7286 16.7969 17.3071C16.7969 15.9736 17.1551 14.951 17.8706 14.2392C18.5881 13.5294 19.5162 13.1721 20.6592 13.1721C21.3385 13.1721 21.9496 13.2928 22.4935 13.5334ZM9.56903 19.2652V16.4904H12.166C12.6175 16.4943 12.9697 16.5537 13.2206 16.6666C13.6691 16.8695 13.8919 17.2407 13.8919 17.7832C13.8919 18.4227 13.6611 18.8543 13.1985 19.082C12.9446 19.2038 12.5874 19.2652 12.1298 19.2652H9.56903ZM9.56903 12.4732V14.7688H12.1339C12.5904 14.7688 12.9627 14.6827 13.2497 14.5105C13.5347 14.3382 13.6782 14.0333 13.6782 13.5977C13.6782 13.1117 13.4895 12.7919 13.1122 12.6355C12.7851 12.5276 12.3697 12.4732 11.8649 12.4732H9.56903Z" fill="white"/>
</svg>
