<svg width="25" height="24" viewBox="0 0 25 24" fill="none" xmlns="http://www.w3.org/2000/svg">
<path d="M5.20768 12H5.2181M12.4993 12H12.5098M19.791 12H19.8014M6.24935 12C6.24935 12.5523 5.78298 13 5.20768 13C4.63239 13 4.16602 12.5523 4.16602 12C4.16602 11.4477 4.63239 11 5.20768 11C5.78298 11 6.24935 11.4477 6.24935 12ZM13.541 12C13.541 12.5523 13.0746 13 12.4993 13C11.9241 13 11.4577 12.5523 11.4577 12C11.4577 11.4477 11.9241 11 12.4993 11C13.0746 11 13.541 11.4477 13.541 12ZM20.8327 12C20.8327 12.5523 20.3663 13 19.791 13C19.2157 13 18.7494 12.5523 18.7494 12C18.7494 11.4477 19.2157 11 19.791 11C20.3663 11 20.8327 11.4477 20.8327 12Z" stroke="#E4E4E4" stroke-width="2" stroke-linecap="round" stroke-linejoin="round"/>
</svg>
