<svg width="33" height="32" viewBox="0 0 33 32" fill="none" xmlns="http://www.w3.org/2000/svg">
<path d="M0.5 16C0.5 7.16344 7.66344 0 16.5 0C25.3366 0 32.5 7.16344 32.5 16C32.5 24.8366 25.3366 32 16.5 32C7.66344 32 0.5 24.8366 0.5 16Z" fill="#186ADE"/>
<path fill-rule="evenodd" clip-rule="evenodd" d="M16.2804 13.3631C16.2804 12.7464 16.1188 12.2177 15.7967 11.7752C15.2599 11.0546 14.3498 10.6853 13.0633 10.6665H7.9668V21.0708H12.7191C13.255 21.0708 13.7507 21.0253 14.2093 20.9313C14.6679 20.8362 15.0642 20.663 15.4004 20.4086C15.6994 20.1868 15.9483 19.9136 16.1469 19.5899C16.461 19.1008 16.6176 18.5475 16.6176 17.9307C16.6176 17.3328 16.4801 16.824 16.2071 16.4062C15.9312 15.9875 15.5258 15.6816 14.988 15.4875C15.3422 15.3093 15.6101 15.1114 15.7927 14.8956C16.1188 14.5095 16.2804 13.9977 16.2804 13.3631ZM23.3919 12.4464H18.8723V11.1516H23.3919V12.4464ZM19.3991 16.4626C19.4734 15.9617 19.655 15.5648 19.943 15.2717C20.231 14.9787 20.6384 14.8322 21.1602 14.8322C21.6418 14.8322 22.0442 14.9698 22.3714 15.246C22.6945 15.5242 22.8771 15.9281 22.9142 16.4626H19.3991ZM22.9935 13.5334C23.5384 13.773 23.9869 14.1531 24.3401 14.6718C24.6622 15.1292 24.8689 15.6598 24.9633 16.2627C25.0185 16.6151 25.0405 17.1259 25.0315 17.7902H19.349C19.3831 18.5613 19.652 19.1028 20.1658 19.4127C20.4768 19.6057 20.8511 19.7027 21.2906 19.7027C21.7532 19.7027 22.1315 19.5849 22.4215 19.3503C22.5811 19.2226 22.7216 19.0464 22.842 18.8207H24.9241C24.8689 19.2761 24.6161 19.7403 24.1685 20.2116C23.4701 20.959 22.4918 21.3332 21.2344 21.3332C20.1959 21.3332 19.2797 21.0184 18.488 20.3868C17.6923 19.7562 17.2969 18.7286 17.2969 17.3071C17.2969 15.9736 17.6551 14.951 18.3706 14.2392C19.0881 13.5294 20.0162 13.1721 21.1592 13.1721C21.8385 13.1721 22.4496 13.2928 22.9935 13.5334ZM10.069 19.2652V16.4904H12.666C13.1175 16.4943 13.4697 16.5537 13.7206 16.6666C14.1691 16.8695 14.3919 17.2407 14.3919 17.7832C14.3919 18.4227 14.1611 18.8543 13.6985 19.082C13.4446 19.2038 13.0874 19.2652 12.6298 19.2652H10.069ZM10.069 12.4732V14.7688H12.6339C13.0904 14.7688 13.4627 14.6827 13.7497 14.5105C14.0347 14.3382 14.1782 14.0333 14.1782 13.5977C14.1782 13.1117 13.9895 12.7919 13.6122 12.6355C13.2851 12.5276 12.8697 12.4732 12.3649 12.4732H10.069Z" fill="white"/>
</svg>
