<svg width="33" height="32" viewBox="0 0 33 32" fill="none" xmlns="http://www.w3.org/2000/svg">
<path d="M16.5 32C25.3365 32 32.5 24.8365 32.5 16C32.5 7.16347 25.3365 0 16.5 0C7.66347 0 0.5 7.16347 0.5 16C0.5 24.8365 7.66347 32 16.5 32Z" fill="#48B8F0"/>
<path d="M6.45973 16.7826C8.33012 15.7523 10.418 14.8924 12.3688 14.0282C15.7249 12.6126 19.0944 11.2215 22.4978 9.92645C23.16 9.70578 24.3498 9.48998 24.4665 10.4713C24.4026 11.8604 24.1398 13.2413 23.9596 14.6222C23.502 17.659 22.9732 20.6854 22.4576 23.7122C22.2799 24.7204 21.0169 25.2424 20.2088 24.5972C18.2666 23.2853 16.3096 21.9862 14.3922 20.644C13.7642 20.0058 14.3466 19.0893 14.9075 18.6336C16.5071 17.0572 18.2035 15.7178 19.7195 14.06C20.1284 13.0724 18.9202 13.9047 18.5216 14.1597C16.3318 15.6688 14.1955 17.27 11.8867 18.5962C10.7074 19.2454 9.33285 18.6906 8.15405 18.3284C7.0971 17.8908 5.54829 17.4499 6.45962 16.7826L6.45973 16.7826Z" fill="white"/>
</svg>
