<svg width="33" height="32" viewBox="0 0 33 32" fill="none" xmlns="http://www.w3.org/2000/svg">
<path d="M16.5 32C25.3365 32 32.5 24.8365 32.5 16C32.5 7.16347 25.3365 0 16.5 0C7.66347 0 0.5 7.16347 0.5 16C0.5 24.8365 7.66347 32 16.5 32Z" fill="#48B8F0"/>
<path d="M6.45875 16.7826C8.32914 15.7523 10.417 14.8924 12.3678 14.0282C15.7239 12.6126 19.0934 11.2215 22.4969 9.92645C23.1591 9.70578 24.3489 9.48998 24.4655 10.4713C24.4017 11.8604 24.1389 13.2413 23.9586 14.6222C23.5011 17.659 22.9723 20.6854 22.4566 23.7122C22.2789 24.7204 21.0159 25.2424 20.2078 24.5972C18.2657 23.2853 16.3086 21.9862 14.3913 20.644C13.7632 20.0058 14.3456 19.0893 14.9065 18.6336C16.5061 17.0572 18.2025 15.7178 19.7185 14.06C20.1275 13.0724 18.9192 13.9047 18.5207 14.1597C16.3308 15.6688 14.1945 17.27 11.8857 18.5962C10.7064 19.2454 9.33187 18.6906 8.15307 18.3284C7.09613 17.8908 5.54731 17.4499 6.45865 16.7826L6.45875 16.7826Z" fill="white"/>
</svg>
