<svg width="32" height="32" viewBox="0 0 32 32" fill="none" xmlns="http://www.w3.org/2000/svg">
<path d="M0 16C0 7.16344 7.16344 0 16 0C24.8366 0 32 7.16344 32 16C32 24.8366 24.8366 32 16 32C7.16344 32 0 24.8366 0 16Z" fill="#186ADE"/>
<path fill-rule="evenodd" clip-rule="evenodd" d="M15.7804 13.3634C15.7804 12.7466 15.6188 12.218 15.2967 11.7755C14.7599 11.0548 13.8498 10.6856 12.5633 10.6667H7.4668V21.0711H12.2191C12.755 21.0711 13.2507 21.0255 13.7093 20.9315C14.1679 20.8365 14.5642 20.6632 14.9004 20.4088C15.1994 20.1871 15.4483 19.9138 15.6469 19.5901C15.961 19.1011 16.1176 18.5477 16.1176 17.931C16.1176 17.333 15.9801 16.8242 15.7071 16.4065C15.4312 15.9877 15.0258 15.6818 14.488 15.4878C14.8422 15.3096 15.1101 15.1116 15.2927 14.8958C15.6188 14.5097 15.7804 13.9979 15.7804 13.3634ZM22.8919 12.4467H18.3723V11.1518H22.8919V12.4467ZM18.8991 16.4629C18.9734 15.962 19.155 15.565 19.443 15.272C19.731 14.979 20.1384 14.8324 20.6602 14.8324C21.1418 14.8324 21.5442 14.97 21.8714 15.2462C22.1945 15.5244 22.3771 15.9283 22.4142 16.4629H18.8991ZM22.4935 13.5336C23.0384 13.7732 23.4869 14.1533 23.8401 14.6721C24.1622 15.1294 24.3689 15.66 24.4633 16.2629C24.5185 16.6153 24.5405 17.1261 24.5315 17.7904H18.849C18.8831 18.5616 19.152 19.1031 19.6658 19.4129C19.9768 19.606 20.3511 19.703 20.7906 19.703C21.2532 19.703 21.6315 19.5852 21.9215 19.3506C22.0811 19.2228 22.2216 19.0466 22.342 18.8209H24.4241C24.3689 19.2763 24.1161 19.7406 23.6685 20.2118C22.9701 20.9592 21.9918 21.3334 20.7344 21.3334C19.6959 21.3334 18.7797 21.0186 17.988 20.387C17.1923 19.7564 16.7969 18.7289 16.7969 17.3073C16.7969 15.9738 17.1551 14.9512 17.8706 14.2395C18.5881 13.5297 19.5162 13.1723 20.6592 13.1723C21.3385 13.1723 21.9496 13.2931 22.4935 13.5336ZM9.56903 19.2654V16.4906H12.166C12.6175 16.4946 12.9697 16.554 13.2206 16.6668C13.6691 16.8697 13.8919 17.241 13.8919 17.7835C13.8919 18.423 13.6611 18.8546 13.1985 19.0823C12.9446 19.204 12.5874 19.2654 12.1298 19.2654H9.56903ZM9.56903 12.4734V14.7691H12.1339C12.5904 14.7691 12.9627 14.683 13.2497 14.5107C13.5347 14.3385 13.6782 14.0336 13.6782 13.598C13.6782 13.1119 13.4895 12.7922 13.1122 12.6358C12.7851 12.5278 12.3697 12.4734 11.8649 12.4734H9.56903Z" fill="white"/>
</svg>
