<svg width="33" height="32" viewBox="0 0 33 32" fill="none" xmlns="http://www.w3.org/2000/svg">
<path d="M0.5 16C0.5 7.16344 7.66344 0 16.5 0C25.3366 0 32.5 7.16344 32.5 16C32.5 24.8366 25.3366 32 16.5 32C7.66344 32 0.5 24.8366 0.5 16Z" fill="#186ADE"/>
<path fill-rule="evenodd" clip-rule="evenodd" d="M16.2804 13.3636C16.2804 12.7469 16.1188 12.2182 15.7967 11.7757C15.2599 11.0551 14.3498 10.6858 13.0633 10.667H7.9668V21.0713H12.7191C13.255 21.0713 13.7507 21.0258 14.2093 20.9317C14.6679 20.8367 15.0642 20.6635 15.4004 20.409C15.6994 20.1873 15.9483 19.9141 16.1469 19.5904C16.461 19.1013 16.6176 18.548 16.6176 17.9312C16.6176 17.3333 16.4801 16.8245 16.2071 16.4067C15.9312 15.988 15.5258 15.6821 14.988 15.488C15.3422 15.3098 15.6101 15.1118 15.7927 14.896C16.1188 14.51 16.2804 13.9982 16.2804 13.3636ZM23.3919 12.4469H18.8723V11.1521H23.3919V12.4469ZM19.3991 16.4631C19.4734 15.9622 19.655 15.5652 19.943 15.2722C20.231 14.9792 20.6384 14.8327 21.1602 14.8327C21.6418 14.8327 22.0442 14.9703 22.3714 15.2465C22.6945 15.5247 22.8771 15.9286 22.9142 16.4631H19.3991ZM22.9935 13.5339C23.5384 13.7734 23.9869 14.1536 24.3401 14.6723C24.6622 15.1297 24.8689 15.6603 24.9633 16.2632C25.0185 16.6156 25.0405 17.1264 25.0315 17.7906H19.349C19.3831 18.5618 19.652 19.1033 20.1658 19.4132C20.4768 19.6062 20.8511 19.7032 21.2906 19.7032C21.7532 19.7032 22.1315 19.5854 22.4215 19.3508C22.5811 19.2231 22.7216 19.0469 22.842 18.8212H24.9241C24.8689 19.2766 24.6161 19.7408 24.1685 20.2121C23.4701 20.9595 22.4918 21.3337 21.2344 21.3337C20.1959 21.3337 19.2797 21.0189 18.488 20.3873C17.6923 19.7567 17.2969 18.7291 17.2969 17.3075C17.2969 15.9741 17.6551 14.9515 18.3706 14.2397C19.0881 13.5299 20.0162 13.1725 21.1592 13.1725C21.8385 13.1725 22.4496 13.2933 22.9935 13.5339ZM10.069 19.2657V16.4908H12.666C13.1175 16.4948 13.4697 16.5542 13.7206 16.6671C14.1691 16.87 14.3919 17.2412 14.3919 17.7837C14.3919 18.4232 14.1611 18.8548 13.6985 19.0825C13.4446 19.2043 13.0874 19.2657 12.6298 19.2657H10.069ZM10.069 12.4736V14.7693H12.6339C13.0904 14.7693 13.4627 14.6832 13.7497 14.511C14.0347 14.3387 14.1782 14.0338 14.1782 13.5982C14.1782 13.1122 13.9895 12.7924 13.6122 12.636C13.2851 12.5281 12.8697 12.4736 12.3649 12.4736H10.069Z" fill="white"/>
</svg>
