<svg width="694" height="216" viewBox="0 0 694 216" fill="none" xmlns="http://www.w3.org/2000/svg">
<path opacity="0.3" d="M1 205.663V216H693V3H681.125H649.253L606.997 30.3077L563.25 24.8462L520.497 46.6923L477.247 48.0577L434.494 54.8846L387.267 66.4904L348.491 74L305.738 106.769L262.986 109.5L219.736 117.692L176.297 135.442L134.23 151.827L90.4828 177.087L47.7299 177.769L1 205.663Z" fill="#8F49DE"/>
<path d="M1 206L47.9225 178.584L90.8679 177.887L133.813 152.076L176.759 136.333L219.704 118.196L262.65 109.825L305.595 107.034L348.541 75.5498L391.486 67.1787L434.431 56.0172L477.377 49.0412L520.322 47.646L563.268 25.323L606.213 30.9038L649.159 3H692.104L693 3" stroke="#8F49DE" stroke-width="2" stroke-linecap="round"/>
<circle cx="46" cy="178" r="4" fill="#8F49DE"/>
<circle cx="89" cy="177" r="4" fill="#8F49DE"/>
<circle cx="133" cy="153" r="4" fill="#8F49DE"/>
<circle cx="177" cy="136" r="4" fill="#8F49DE"/>
<circle cx="219" cy="118" r="4" fill="#8F49DE"/>
<circle cx="262" cy="109" r="4" fill="#8F49DE"/>
<circle cx="305" cy="107" r="4" fill="#8F49DE"/>
<circle cx="349" cy="56" r="4" fill="#8F49DE"/>
<circle cx="392" cy="50" r="4" fill="#8F49DE"/>
<circle cx="434" cy="42" r="4" fill="#8F49DE"/>
<circle cx="479" cy="49" r="4" fill="#8F49DE"/>
<circle cx="522" cy="46" r="4" fill="#8F49DE"/>
<circle cx="565" cy="25" r="4" fill="#8F49DE"/>
<circle cx="608" cy="30" r="4" fill="#8F49DE"/>
<circle cx="650" cy="4" r="4" fill="#8F49DE"/>
</svg>
