<svg width="694" height="160" viewBox="0 0 694 160" fill="none" xmlns="http://www.w3.org/2000/svg">
<path opacity="0.3" d="M1 149.5V160H693V4H681.125H649.253L606.997 24L563.25 20L520.497 36L477.247 37L434.494 42L387.267 50.5L348.491 56L305.738 80L262.986 82L219.736 88L176.297 101L134.23 113L90.4828 131.5L47.7299 132L1 149.5Z" fill="#186ADE"/>
<path d="M1 149.5L47.9225 132L90.8679 131.5L133.813 113L176.759 101L219.704 88L262.65 82L305.595 80L348.541 56L391.486 50L434.431 42L477.377 37L520.322 36L563.268 20L606.213 24L649.159 4H692.104L693 4" stroke="#186ADE" stroke-width="2" stroke-linecap="round"/>
<circle cx="46" cy="132" r="4" fill="#186ADE"/>
<circle cx="89" cy="131" r="4" fill="#186ADE"/>
<circle cx="133" cy="113" r="4" fill="#186ADE"/>
<circle cx="177" cy="100" r="4" fill="#186ADE"/>
<circle cx="219" cy="88" r="4" fill="#186ADE"/>
<circle cx="262" cy="82" r="4" fill="#186ADE"/>
<circle cx="305" cy="80" r="4" fill="#186ADE"/>
<circle cx="349" cy="56" r="4" fill="#186ADE"/>
<circle cx="392" cy="50" r="4" fill="#186ADE"/>
<circle cx="434" cy="42" r="4" fill="#186ADE"/>
<circle cx="479" cy="37" r="4" fill="#186ADE"/>
<circle cx="522" cy="36" r="4" fill="#186ADE"/>
<circle cx="565" cy="20" r="4" fill="#186ADE"/>
<circle cx="608" cy="24" r="4" fill="#186ADE"/>
<circle cx="650" cy="4" r="4" fill="#186ADE"/>
</svg>
