<svg width="39" height="38" viewBox="0 0 39 38" fill="none" xmlns="http://www.w3.org/2000/svg">
<path fill-rule="evenodd" clip-rule="evenodd" d="M13.0177 12.988L11.6016 10.2122C11.4238 9.86353 11.0654 9.64407 10.6741 9.64407H8.31422C7.92307 9.64407 7.56491 9.42487 7.38694 9.07655L5.18584 4.76864C5.0335 4.47048 5.03382 4.11725 5.1867 3.81937L6.75656 0.760706C7.00288 0.280778 6.44648 -0.210953 6.00048 0.0925007L0.617765 3.7548C0.17 4.05945 0.0305116 4.65647 0.296932 5.12798L7.58821 18.0322C7.77292 18.3591 8.11932 18.5612 8.4948 18.5612H12.0901C12.6652 18.5612 13.1314 18.095 13.1314 17.5199V13.4612C13.1314 13.2967 13.0925 13.1345 13.0177 12.988ZM18.8573 21.6269L15.3496 18.8765C15.0979 18.6791 14.9508 18.377 14.9508 18.0571V10.1534C14.9508 9.83353 15.0979 9.53138 15.3496 9.33399L18.8573 6.58361C19.2346 6.28779 19.7651 6.28779 20.1424 6.58361L23.6501 9.33399C23.9018 9.53138 24.0488 9.83353 24.0488 10.1534V18.0571C24.0488 18.377 23.9018 18.6791 23.6501 18.8765L20.1424 21.6269C19.7651 21.9227 19.2346 21.9227 18.8573 21.6269ZM18.8573 28.3142L15.3496 25.5638C15.0979 25.3664 14.9508 25.0643 14.9508 24.7444V22.9323C14.9508 22.0638 15.9513 21.577 16.6347 22.1128L18.8573 23.8556C19.2346 24.1514 19.7651 24.1514 20.1424 23.8556L22.365 22.1128C23.0484 21.577 24.0488 22.0638 24.0488 22.9323V24.7444C24.0488 25.0643 23.9018 25.3664 23.6501 25.5638L20.1424 28.3142C19.7651 28.61 19.2346 28.61 18.8573 28.3142ZM15.0862 31.2848L18.5939 37.4732C18.9928 38.1769 20.0068 38.1769 20.4057 37.4732L23.9134 31.2848C24.0022 31.1282 24.0488 30.9513 24.0488 30.7713V29.6188C24.0488 28.7504 23.0484 28.2635 22.365 28.7994L20.1424 30.5421C19.7651 30.838 19.2346 30.838 18.8573 30.5421L16.6347 28.7994C15.9513 28.2635 14.9508 28.7504 14.9508 29.6188V30.7713C14.9508 30.9513 14.9975 31.1282 15.0862 31.2848ZM27.3991 10.2122L25.9831 12.988C25.9083 13.1345 25.8694 13.2967 25.8694 13.4612V17.5199C25.8694 18.095 26.3356 18.5612 26.9107 18.5612H30.506C30.8815 18.5612 31.2279 18.3591 31.4126 18.0322L38.7038 5.12798C38.9703 4.65647 38.8308 4.05945 38.383 3.7548L33.0003 0.0925007C32.5543 -0.210953 31.9979 0.280778 32.2442 0.760706L33.8143 3.81974C33.967 4.11742 33.9675 4.47037 33.8154 4.76842L31.618 9.07596C31.4401 9.4246 31.0818 9.64407 30.6904 9.64407H28.3267C27.9353 9.64407 27.577 9.86353 27.3991 10.2122ZM10.6455 20.3476H12.0903C12.6653 20.3476 13.1316 20.8138 13.1316 21.3889V23.4686V26.2588C13.1316 26.8028 12.4024 26.9823 12.1498 26.5005L9.72322 21.8724C9.35969 21.1791 9.86258 20.3476 10.6455 20.3476ZM26.9105 20.3476H28.3553C29.1382 20.3476 29.6411 21.1791 29.2776 21.8724L26.851 26.5005C26.5984 26.9823 25.8692 26.8028 25.8692 26.2588V23.4686V21.3889C25.8692 20.8138 26.3354 20.3476 26.9105 20.3476Z" fill="#3D8DF5"/>
</svg>
