<svg width="56" height="56" viewBox="0 0 56 56" fill="none" xmlns="http://www.w3.org/2000/svg">
<rect width="56" height="56" rx="28" fill="#3D8DF5"/>
<path fill-rule="evenodd" clip-rule="evenodd" d="M22.8629 23.1648L21.5538 20.5334C21.4884 20.4019 21.3541 20.3187 21.2072 20.3187H18.7771C18.6303 20.3187 18.4961 20.2357 18.4306 20.1043L16.4356 16.1005C16.3813 15.9915 16.3814 15.8634 16.4359 15.7546L18.2064 12.2174C18.2962 12.038 18.0871 11.8572 17.9225 11.9721L12.5387 15.7282C12.3763 15.8415 12.3256 16.059 12.4212 16.2325L18.5954 27.4373C18.6635 27.5608 18.7934 27.6376 18.9344 27.6376H22.5164C22.7301 27.6376 22.9034 27.4642 22.9034 27.2505V23.3372C22.9034 23.2774 22.8896 23.2184 22.8629 23.1648ZM27.7585 30.37L24.5044 27.7537C24.413 27.6803 24.3599 27.5693 24.3599 27.4521V20.5042C24.3599 20.3869 24.413 20.276 24.5044 20.2025L27.7585 17.5862C27.9001 17.4723 28.1019 17.4723 28.2436 17.5862L31.4976 20.2025C31.589 20.276 31.6422 20.3869 31.6422 20.5042V27.4521C31.6422 27.5693 31.589 27.6803 31.4976 27.7537L28.2436 30.37C28.1019 30.4839 27.9001 30.4839 27.7585 30.37ZM27.7585 35.8592L24.5044 33.2429C24.413 33.1694 24.3599 33.0585 24.3599 32.9412V30.2752C24.3599 29.9502 24.7362 29.7698 24.9895 29.9735L27.7585 32.1998C27.9001 32.3136 28.1019 32.3136 28.2436 32.1998L31.0125 29.9735C31.2658 29.7698 31.6422 29.9502 31.6422 30.2752V32.9412C31.6422 33.0585 31.589 33.1694 31.4976 33.2429L28.2436 35.8592C28.1019 35.9731 27.9001 35.9731 27.7585 35.8592ZM24.4082 37.9713L27.6622 43.858C27.8095 44.1244 28.1925 44.1244 28.3398 43.858L31.5939 37.9713C31.6255 37.914 31.6422 37.8495 31.6422 37.784V35.7643C31.6422 35.4393 31.2658 35.2589 31.0125 35.4626L28.2436 37.6889C28.1019 37.8027 27.9001 37.8027 27.7585 37.6889L24.9895 35.4626C24.7362 35.2589 24.3599 35.4393 24.3599 35.7643V37.784C24.3599 37.8495 24.3765 37.914 24.4082 37.9713ZM34.4486 20.5334L33.1394 23.1648C33.1128 23.2184 33.0989 23.2774 33.0989 23.3372V27.2505C33.0989 27.4642 33.2722 27.6376 33.486 27.6376H37.0679C37.209 27.6376 37.3389 27.5608 37.4069 27.4373L43.5812 16.2325C43.6768 16.059 43.626 15.8415 43.4637 15.7282L38.0798 11.9721C37.9152 11.8572 37.7062 12.038 37.796 12.2174L39.5665 15.7547C39.621 15.8635 39.6211 15.9915 39.5669 16.1004L37.5751 20.1041C37.5097 20.2356 37.3754 20.3187 37.2285 20.3187H34.7951C34.6482 20.3187 34.514 20.4019 34.4486 20.5334ZM20.1682 29.1013H22.5165C22.7303 29.1013 22.9036 29.2746 22.9036 29.4884V31.6629V34.8846C22.9036 35.0879 22.6303 35.1537 22.5377 34.9727L19.8236 29.6646C19.6919 29.407 19.8789 29.1013 20.1682 29.1013ZM33.4858 29.1013H35.8341C36.1234 29.1013 36.3105 29.407 36.1788 29.6646L33.4646 34.9727C33.3721 35.1537 33.0987 35.0879 33.0987 34.8846V31.6629V29.4884C33.0987 29.2746 33.2721 29.1013 33.4858 29.1013Z" fill="white"/>
</svg>
