<svg width="40" height="38" viewBox="0 0 40 38" fill="none" xmlns="http://www.w3.org/2000/svg">
<path fill-rule="evenodd" clip-rule="evenodd" d="M13.5177 12.988L12.1016 10.2122C11.9238 9.86353 11.5654 9.64407 11.1741 9.64407H8.81422C8.42307 9.64407 8.06491 9.42487 7.88694 9.07655L5.68584 4.76864C5.5335 4.47048 5.53382 4.11725 5.6867 3.81937L7.25656 0.760706C7.50288 0.280778 6.94648 -0.210953 6.50048 0.0925007L1.11777 3.7548C0.67 4.05945 0.530512 4.65647 0.796932 5.12798L8.08821 18.0322C8.27292 18.3591 8.61932 18.5612 8.9948 18.5612H12.5901C13.1652 18.5612 13.6314 18.095 13.6314 17.5199V13.4612C13.6314 13.2967 13.5925 13.1345 13.5177 12.988ZM19.3573 21.6269L15.8496 18.8765C15.5979 18.6791 15.4508 18.377 15.4508 18.0571V10.1534C15.4508 9.83353 15.5979 9.53138 15.8496 9.33399L19.3573 6.58361C19.7346 6.28779 20.2651 6.28779 20.6424 6.58361L24.1501 9.33399C24.4018 9.53138 24.5488 9.83353 24.5488 10.1534V18.0571C24.5488 18.377 24.4018 18.6791 24.1501 18.8765L20.6424 21.6269C20.2651 21.9227 19.7346 21.9227 19.3573 21.6269ZM19.3573 28.3142L15.8496 25.5638C15.5979 25.3664 15.4508 25.0643 15.4508 24.7444V22.9323C15.4508 22.0638 16.4513 21.577 17.1347 22.1128L19.3573 23.8556C19.7346 24.1514 20.2651 24.1514 20.6424 23.8556L22.865 22.1128C23.5484 21.577 24.5488 22.0638 24.5488 22.9323V24.7444C24.5488 25.0643 24.4018 25.3664 24.1501 25.5638L20.6424 28.3142C20.2651 28.61 19.7346 28.61 19.3573 28.3142ZM15.5862 31.2848L19.0939 37.4732C19.4928 38.1769 20.5068 38.1769 20.9057 37.4732L24.4134 31.2848C24.5022 31.1282 24.5488 30.9513 24.5488 30.7713V29.6188C24.5488 28.7504 23.5484 28.2635 22.865 28.7994L20.6424 30.5421C20.2651 30.838 19.7346 30.838 19.3573 30.5421L17.1347 28.7994C16.4513 28.2635 15.4508 28.7504 15.4508 29.6188V30.7713C15.4508 30.9513 15.4975 31.1282 15.5862 31.2848ZM27.8991 10.2122L26.4831 12.988C26.4083 13.1345 26.3694 13.2967 26.3694 13.4612V17.5199C26.3694 18.095 26.8356 18.5612 27.4107 18.5612H31.006C31.3815 18.5612 31.7279 18.3591 31.9126 18.0322L39.2038 5.12798C39.4703 4.65647 39.3308 4.05945 38.883 3.7548L33.5003 0.0925007C33.0543 -0.210953 32.4979 0.280778 32.7442 0.760706L34.3143 3.81974C34.467 4.11742 34.4675 4.47037 34.3154 4.76842L32.118 9.07596C31.9401 9.4246 31.5818 9.64407 31.1904 9.64407H28.8267C28.4353 9.64407 28.077 9.86353 27.8991 10.2122ZM11.1455 20.3476H12.5903C13.1653 20.3476 13.6316 20.8138 13.6316 21.3889V23.4686V26.2588C13.6316 26.8028 12.9024 26.9823 12.6498 26.5005L10.2232 21.8724C9.85969 21.1791 10.3626 20.3476 11.1455 20.3476ZM27.4105 20.3476H28.8553C29.6382 20.3476 30.1411 21.1791 29.7776 21.8724L27.351 26.5005C27.0984 26.9823 26.3692 26.8028 26.3692 26.2588V23.4686V21.3889C26.3692 20.8138 26.8354 20.3476 27.4105 20.3476Z" fill="#3D8DF5"/>
</svg>
