<svg width="56" height="56" viewBox="0 0 56 56" fill="none" xmlns="http://www.w3.org/2000/svg">
<rect width="56" height="56" rx="28" fill="#3D8DF5"/>
<path fill-rule="evenodd" clip-rule="evenodd" d="M22.8624 23.1647L21.5533 20.5333C21.4879 20.4018 21.3536 20.3186 21.2067 20.3186H18.7766C18.6298 20.3186 18.4956 20.2356 18.4302 20.1042L16.4351 16.1004C16.3808 15.9914 16.3809 15.8633 16.4354 15.7545L18.2059 12.2173C18.2957 12.0379 18.0867 11.8571 17.9221 11.972L12.5382 15.7281C12.3758 15.8414 12.3251 16.059 12.4207 16.2324L18.5949 27.4372C18.663 27.5607 18.7929 27.6375 18.934 27.6375H22.5159C22.7297 27.6375 22.903 27.4642 22.903 27.2504V23.3371C22.903 23.2773 22.8891 23.2183 22.8624 23.1647ZM27.758 30.37L24.5039 27.7537C24.4125 27.6802 24.3594 27.5692 24.3594 27.452V20.5041C24.3594 20.3868 24.4125 20.2759 24.5039 20.2024L27.758 17.5861C27.8996 17.4722 28.1014 17.4722 28.2431 17.5861L31.4971 20.2024C31.5885 20.2759 31.6417 20.3868 31.6417 20.5041V27.452C31.6417 27.5692 31.5885 27.6802 31.4971 27.7537L28.2431 30.37C28.1014 30.4838 27.8996 30.4838 27.758 30.37ZM27.758 35.8591L24.5039 33.2428C24.4125 33.1693 24.3594 33.0584 24.3594 32.9411V30.2751C24.3594 29.9501 24.7357 29.7697 24.989 29.9734L27.758 32.1997C27.8996 32.3136 28.1014 32.3136 28.2431 32.1997L31.012 29.9734C31.2653 29.7697 31.6417 29.9501 31.6417 30.2751V32.9411C31.6417 33.0584 31.5885 33.1693 31.4971 33.2428L28.2431 35.8591C28.1014 35.973 27.8996 35.973 27.758 35.8591ZM24.4077 37.9712L27.6617 43.8579C27.809 44.1243 28.192 44.1243 28.3393 43.8579L31.5934 37.9712C31.6251 37.9139 31.6417 37.8494 31.6417 37.7839V35.7642C31.6417 35.4392 31.2653 35.2588 31.012 35.4625L28.2431 37.6888C28.1014 37.8027 27.8996 37.8027 27.758 37.6888L24.989 35.4625C24.7357 35.2588 24.3594 35.4392 24.3594 35.7642V37.7839C24.3594 37.8494 24.376 37.9139 24.4077 37.9712ZM34.4481 20.5333L33.1389 23.1647C33.1123 23.2183 33.0984 23.2773 33.0984 23.3371V27.2504C33.0984 27.4642 33.2717 27.6375 33.4855 27.6375H37.0674C37.2085 27.6375 37.3384 27.5607 37.4065 27.4372L43.5807 16.2324C43.6763 16.059 43.6256 15.8414 43.4632 15.7281L38.0793 11.972C37.9147 11.8571 37.7057 12.0379 37.7955 12.2173L39.566 15.7546C39.6205 15.8634 39.6206 15.9914 39.5664 16.1003L37.5746 20.104C37.5092 20.2355 37.3749 20.3186 37.228 20.3186H34.7946C34.6477 20.3186 34.5135 20.4018 34.4481 20.5333ZM20.1677 29.1012H22.516C22.7298 29.1012 22.9031 29.2745 22.9031 29.4883V31.6628V34.8845C22.9031 35.0878 22.6298 35.1536 22.5372 34.9726L19.8231 29.6645C19.6914 29.407 19.8785 29.1012 20.1677 29.1012ZM33.4854 29.1012H35.8336C36.1229 29.1012 36.31 29.407 36.1783 29.6645L33.4641 34.9726C33.3716 35.1536 33.0983 35.0878 33.0983 34.8845V31.6628V29.4883C33.0983 29.2745 33.2716 29.1012 33.4854 29.1012Z" fill="white"/>
</svg>
