<svg width="81" height="81" viewBox="0 0 81 81" fill="none" xmlns="http://www.w3.org/2000/svg">
<circle cx="40.8721" cy="40.8721" r="40" fill="#E0E0E0"/>
<path d="M73.2329 64.3835C69.2101 69.9204 63.8339 74.3325 57.6186 77.1978C51.4033 80.0631 44.5567 81.2858 37.7339 80.7488C30.911 80.2118 24.34 77.9332 18.6494 74.1309C12.9588 70.3286 8.33906 65.1297 5.23196 59.0317C2.12485 52.9337 0.634364 46.1404 0.903058 39.3017C1.17175 32.463 3.19064 25.8076 6.76662 19.9721C10.3426 14.1367 15.356 9.31636 21.3274 5.97225C27.2987 2.62813 34.0282 0.872088 40.8722 0.87209L40.8722 40.8721L73.2329 64.3835Z" fill="#3D8DF5"/>
<path d="M40.8721 0.872071C34.5597 0.872071 28.3369 2.36603 22.7124 5.23181C17.088 8.09759 12.2217 12.2538 8.51139 17.3607C4.80104 22.4675 2.35202 28.38 1.36454 34.6147C0.377057 40.8494 0.879166 47.2293 2.82981 53.2328L40.8721 40.8721L40.8721 0.872071Z" fill="#E0E0E0"/>
<path d="M40.8721 0.872071C32.4249 0.872071 24.1946 3.54627 17.3607 8.51139L40.8721 40.8721L40.8721 0.872071Z" fill="#E0E0E0"/>
<circle cx="41" cy="41" r="29" fill="white"/>
</svg>
