<svg width="81" height="81" viewBox="0 0 81 81" fill="none" xmlns="http://www.w3.org/2000/svg">
<circle cx="40.8721" cy="40.8721" r="40" fill="#186ADE"/>
<path d="M73.2324 64.3835C69.2096 69.9204 63.8334 74.3325 57.6181 77.1978C51.4028 80.0631 44.5563 81.2858 37.7334 80.7488C30.9105 80.2118 24.3395 77.9332 18.6489 74.1309C12.9584 70.3286 8.33857 65.1297 5.23147 59.0317C2.12436 52.9337 0.633875 46.1404 0.90257 39.3017C1.17126 32.463 3.19015 25.8076 6.76613 19.9721C10.3421 14.1367 15.3555 9.31636 21.3269 5.97225C27.2982 2.62813 34.0278 0.872088 40.8717 0.87209L40.8717 40.8721L73.2324 64.3835Z" fill="#E0E0E0"/>
<path d="M40.8721 0.872071C34.5597 0.872071 28.3369 2.36603 22.7124 5.23181C17.088 8.09759 12.2217 12.2538 8.51139 17.3607C4.80104 22.4675 2.35202 28.38 1.36454 34.6147C0.377057 40.8494 0.879166 47.2293 2.82981 53.2328L40.8721 40.8721L40.8721 0.872071Z" fill="#E0E0E0"/>
<circle cx="41" cy="41" r="29" fill="white"/>
</svg>
