<svg width="241" height="241" viewBox="0 0 241 241" fill="none" xmlns="http://www.w3.org/2000/svg">
<circle cx="120.616" cy="120.616" r="120" fill="#186ADE"/>
<path d="M217.698 191.15C205.63 207.761 189.501 220.998 170.855 229.593C152.209 238.189 131.67 241.857 111.201 240.246C90.7324 238.635 71.0194 231.8 53.9477 220.393C36.876 208.986 23.0167 193.389 13.6954 175.095C4.37407 156.801 -0.097397 136.421 0.708686 115.905C1.51477 95.389 7.57144 75.4228 18.2994 57.9164C29.0273 40.4101 44.0676 25.9491 61.9816 15.9167C79.8957 5.88439 100.084 0.616265 120.616 0.616269L120.616 120.616L217.698 191.15Z" fill="#3D8DF5"/>
<path d="M120.616 0.616212C101.679 0.616213 83.0106 5.0981 66.1373 13.6954C49.2641 22.2928 34.6652 34.7614 23.5342 50.082C12.4031 65.4025 5.05605 83.14 2.09361 101.844C-0.86883 120.548 0.637497 139.688 6.48943 157.698L120.616 120.616L120.616 0.616212Z" fill="#ADCCF7"/>
<path d="M120.616 0.616212C95.2747 0.616213 70.5837 8.63881 50.082 23.5342L120.616 120.616L120.616 0.616212Z" fill="#75B1FF"/>
<circle cx="120.5" cy="120.5" r="97.5" fill="white"/>
</svg>
