<svg width="16" height="16" viewBox="0 0 16 16" fill="none" xmlns="http://www.w3.org/2000/svg">
<g clip-path="url(#clip0_1290_2825)">
<path d="M10.666 14V12.6667C10.666 11.9594 10.3851 11.2811 9.88497 10.781C9.38487 10.281 8.70659 10 7.99935 10H3.33268C2.62544 10 1.94716 10.281 1.44706 10.781C0.946967 11.2811 0.666016 11.9594 0.666016 12.6667V14M13.3327 5.33333V9.33333M15.3327 7.33333H11.3327M8.33268 4.66667C8.33268 6.13943 7.13877 7.33333 5.66602 7.33333C4.19326 7.33333 2.99935 6.13943 2.99935 4.66667C2.99935 3.19391 4.19326 2 5.66602 2C7.13877 2 8.33268 3.19391 8.33268 4.66667Z" stroke="white" stroke-width="1.5" stroke-linecap="round" stroke-linejoin="round"/>
</g>
<defs>
<clipPath id="clip0_1290_2825">
<rect width="16" height="16" fill="white"/>
</clipPath>
</defs>
</svg>
